<svg width="48" height="48" viewBox="0 0 48 48" fill="none" xmlns="http://www.w3.org/2000/svg">
<g clip-path="url(#clip0_2123_6087)">
<path d="M20 2.36002C19.7499 2.36099 19.5085 2.26823 19.3235 2.10003C19.1384 1.93183 19.0231 1.7004 19.0003 1.45138C18.9774 1.20235 19.0487 0.953806 19.2001 0.754747C19.3514 0.555688 19.5719 0.420564 19.818 0.37602C21.1977 0.12404 22.5974 -0.00181283 24 1.97263e-05C24.2652 1.97263e-05 24.5195 0.105377 24.7071 0.292913C24.8946 0.480449 25 0.734803 25 1.00002C25 1.26524 24.8946 1.51959 24.7071 1.70713C24.5195 1.89466 24.2652 2.00002 24 2.00002C22.7195 1.99862 21.4416 2.11343 20.182 2.34302C20.1219 2.35398 20.061 2.35966 20 2.36002Z" fill="white"/>
<path d="M3.80885 13.9993C3.63522 13.9992 3.46462 13.9538 3.31383 13.8678C3.16304 13.7817 3.03726 13.6578 2.94886 13.5084C2.86047 13.359 2.81251 13.1891 2.8097 13.0155C2.80689 12.8419 2.84934 12.6705 2.93285 12.5183C3.76311 11.008 4.75312 9.59123 5.88585 8.2923C6.0601 8.09233 6.30665 7.96976 6.57126 7.95157C6.70228 7.94257 6.8338 7.95945 6.9583 8.00127C7.08279 8.04309 7.19783 8.10902 7.29685 8.1953C7.39587 8.28158 7.47692 8.38652 7.53538 8.50412C7.59384 8.62172 7.62857 8.74969 7.63758 8.88071C7.64658 9.01174 7.6297 9.14325 7.58788 9.26775C7.54606 9.39224 7.48013 9.50729 7.39385 9.6063C6.35527 10.7969 5.44772 12.0957 4.68685 13.4803C4.60053 13.6376 4.47347 13.7688 4.31899 13.8602C4.16451 13.9515 3.9883 13.9995 3.80885 13.9993Z" fill="white"/>
<path d="M24.0001 48C20.4052 48 16.8561 47.1924 13.6152 45.6369C10.3742 44.0814 7.52406 41.8176 5.27529 39.0128C3.02653 36.2081 1.43658 32.934 0.622874 29.4323C-0.190828 25.9307 -0.207494 22.291 0.574107 18.782C0.599413 18.6506 0.650834 18.5256 0.725323 18.4145C0.799811 18.3033 0.895853 18.2082 1.00776 18.1348C1.11966 18.0615 1.24515 18.0113 1.3768 17.9873C1.50844 17.9633 1.64357 17.966 1.77416 17.9952C1.90475 18.0244 2.02815 18.0795 2.13706 18.1572C2.24598 18.235 2.33817 18.3338 2.4082 18.4478C2.47823 18.5618 2.52466 18.6888 2.54474 18.8211C2.56482 18.9534 2.55814 19.0883 2.52511 19.218C1.66663 23.0678 1.85894 27.0776 3.08191 30.8275C4.30487 34.5775 6.51351 37.9297 9.47658 40.5331C12.4397 43.1366 16.0482 44.8956 19.9243 45.6259C23.8004 46.3562 27.8016 46.031 31.509 44.6843C35.2163 43.3376 38.4934 41.019 40.9971 37.9712C43.5009 34.9234 45.1392 31.2586 45.7405 27.3603C46.3419 23.4621 45.8841 19.4739 44.4152 15.8133C42.9463 12.1527 40.5203 8.95429 37.3911 6.55301C37.2845 6.47392 37.1948 6.37441 37.1271 6.26029C37.0594 6.14616 37.015 6.0197 36.9967 5.88827C36.9783 5.75684 36.9863 5.62307 37.0202 5.49476C37.0541 5.36645 37.1131 5.24617 37.194 5.14092C37.2748 5.03567 37.3758 4.94756 37.491 4.88173C37.6062 4.81589 37.7334 4.77365 37.8651 4.75747C37.9968 4.74128 38.1304 4.75147 38.2582 4.78745C38.3859 4.82342 38.5052 4.88446 38.6091 4.96701C42.588 8.0187 45.5108 12.2403 46.9669 17.0386C48.423 21.837 48.3392 26.971 46.7272 31.7192C45.1152 36.4675 42.0562 40.5914 37.9798 43.5116C33.9034 46.4317 29.0145 48.0014 24.0001 48Z" fill="white"/>
<path d="M11.0211 6.01816C10.8084 6.01787 10.6014 5.94978 10.43 5.82378C10.2587 5.69778 10.132 5.52044 10.0683 5.31751C10.0047 5.11458 10.0073 4.89664 10.076 4.69534C10.1447 4.49405 10.2757 4.31989 10.4501 4.19816C11.7548 3.2957 13.148 2.52842 14.6081 1.90816C14.8521 1.80419 15.1274 1.80141 15.3735 1.90043C15.6195 1.99945 15.8161 2.19216 15.9201 2.43616C16.0241 2.68016 16.0268 2.95546 15.9278 3.20151C15.8288 3.44756 15.6361 3.64419 15.3921 3.74816C14.0578 4.31498 12.7846 5.01592 11.5921 5.84016C11.4244 5.95635 11.2251 6.01847 11.0211 6.01816Z" fill="white"/>
<path d="M32 33C31.7348 32.9999 31.4805 32.8946 31.293 32.707L23.293 24.707C23.1054 24.5195 23.0001 24.2652 23 24V8C23 7.73478 23.1054 7.48043 23.2929 7.29289C23.4804 7.10536 23.7348 7 24 7C24.2652 7 24.5196 7.10536 24.7071 7.29289C24.8946 7.48043 25 7.73478 25 8V23.586L32.707 31.293C32.8468 31.4329 32.942 31.611 32.9806 31.805C33.0192 31.9989 32.9993 32.2 32.9237 32.3827C32.848 32.5654 32.7199 32.7215 32.5555 32.8314C32.391 32.9413 32.1978 33 32 33Z" fill="white"/>
<path d="M37 14C36.7348 14 36.4804 13.8946 36.2929 13.7071C36.1054 13.5196 36 13.2652 36 13V5C36 4.73478 36.1054 4.48043 36.2929 4.29289C36.4804 4.10536 36.7348 4 37 4H45C45.2652 4 45.5196 4.10536 45.7071 4.29289C45.8946 4.48043 46 4.73478 46 5C46 5.26522 45.8946 5.51957 45.7071 5.70711C45.5196 5.89464 45.2652 6 45 6H38V13C38 13.2652 37.8946 13.5196 37.7071 13.7071C37.5196 13.8946 37.2652 14 37 14Z" fill="white"/>
</g>
<defs>
<clipPath id="clip0_2123_6087">
<rect width="48" height="48" fill="white"/>
</clipPath>
</defs>
</svg>
