<svg width="48" height="48" viewBox="0 0 48 48" fill="none" xmlns="http://www.w3.org/2000/svg">
<g clip-path="url(#clip0_2123_6050)">
<path fill-rule="evenodd" clip-rule="evenodd" d="M37.0053 47.5776H0.56239C0.253076 47.5776 0 47.3245 0 47.0152V5.53895C0 5.22964 0.253076 4.97656 0.56239 4.97656H47.4376C47.7469 4.97656 48 5.22964 48 5.53895V39.3667C48 39.676 47.7469 39.9291 47.4376 39.9291H37.5677V47.0152C37.5677 47.3245 37.3146 47.5776 37.0053 47.5776ZM1.12478 46.4528H36.4429V39.3667C36.4429 39.0574 36.696 38.8043 37.0053 38.8043H46.8752V6.10134H1.12478V46.4528Z" fill="white"/>
<path fill-rule="evenodd" clip-rule="evenodd" d="M37.0057 47.578C36.9214 47.578 36.837 47.5499 36.7527 47.5217C36.584 47.4374 36.4434 47.2405 36.4434 47.0156V39.3671C36.4434 39.0578 36.6964 38.8047 37.0057 38.8047H47.4381C47.663 38.8047 47.888 38.9734 47.9724 39.1984C48.0286 39.4233 47.9442 39.6764 47.7474 39.817L37.3432 47.4655C37.2588 47.5499 37.1182 47.578 37.0057 47.578ZM37.5681 39.9295V45.9189L45.7228 39.9295H37.5681Z" fill="white"/>
<path fill-rule="evenodd" clip-rule="evenodd" d="M47.4376 16.1131H0.56239C0.253076 16.1131 0 15.86 0 15.5507C0 15.2414 0.253076 14.9883 0.56239 14.9883H47.4376C47.7469 14.9883 48 15.2414 48 15.5507C48 15.86 47.7469 16.1131 47.4376 16.1131Z" fill="white"/>
<path fill-rule="evenodd" clip-rule="evenodd" d="M10.8261 10.6574C10.5167 10.6574 10.2637 10.4043 10.2637 10.095V0.984265C10.2637 0.646831 10.5167 0.421875 10.8261 0.421875C11.1354 0.421875 11.3885 0.646831 11.3885 0.984265V10.095C11.3885 10.4043 11.1354 10.6574 10.8261 10.6574Z" fill="white"/>
<path fill-rule="evenodd" clip-rule="evenodd" d="M23.9862 10.6574C23.6769 10.6574 23.4238 10.4043 23.4238 10.095V0.984265C23.4238 0.646831 23.6769 0.421875 23.9862 0.421875C24.2955 0.421875 24.5486 0.646831 24.5486 0.984265V10.095C24.5486 10.4043 24.2955 10.6574 23.9862 10.6574Z" fill="white"/>
<path fill-rule="evenodd" clip-rule="evenodd" d="M37.1737 10.6574C36.8644 10.6574 36.6113 10.4043 36.6113 10.095V0.984265C36.6113 0.646831 36.8644 0.421875 37.1737 0.421875C37.483 0.421875 37.7361 0.646831 37.7361 0.984265V10.095C37.7361 10.4043 37.483 10.6574 37.1737 10.6574Z" fill="white"/>
<path fill-rule="evenodd" clip-rule="evenodd" d="M12.8503 25.8134H5.84852C5.53921 25.8134 5.28613 25.5603 5.28613 25.251V18.9804C5.28613 18.671 5.53921 18.418 5.84852 18.418H12.8503C13.1596 18.418 13.4127 18.671 13.4127 18.9804V25.251C13.4127 25.5603 13.1596 25.8134 12.8503 25.8134ZM6.41091 24.6886H12.2879V19.5427H6.41091V24.6886Z" fill="white"/>
<path fill-rule="evenodd" clip-rule="evenodd" d="M27.5007 25.8134H20.4989C20.1896 25.8134 19.9365 25.5603 19.9365 25.251V18.9804C19.9365 18.671 20.1896 18.418 20.4989 18.418H27.5007C27.81 18.418 28.0631 18.671 28.0631 18.9804V25.251C28.0631 25.5603 27.81 25.8134 27.5007 25.8134ZM21.0613 24.6886H26.9383V19.5427H21.0613V24.6886Z" fill="white"/>
<path fill-rule="evenodd" clip-rule="evenodd" d="M42.1511 25.8134H35.1493C34.84 25.8134 34.5869 25.5603 34.5869 25.251V18.9804C34.5869 18.671 34.84 18.418 35.1493 18.418H42.1511C42.4604 18.418 42.7135 18.671 42.7135 18.9804V25.251C42.7135 25.5603 42.4604 25.8134 42.1511 25.8134ZM35.7117 24.6886H41.5887V19.5427H35.7117V24.6886Z" fill="white"/>
<path fill-rule="evenodd" clip-rule="evenodd" d="M12.8503 34.9814H5.84852C5.53921 34.9814 5.28613 34.7283 5.28613 34.419V28.1483C5.28613 27.839 5.53921 27.5859 5.84852 27.5859H12.8503C13.1596 27.5859 13.4127 27.839 13.4127 28.1483V34.419C13.4127 34.7283 13.1596 34.9814 12.8503 34.9814ZM6.41091 33.8566H12.2879V28.7107H6.41091V33.8566Z" fill="white"/>
<path fill-rule="evenodd" clip-rule="evenodd" d="M27.5007 34.9814H20.4989C20.1896 34.9814 19.9365 34.7283 19.9365 34.419V28.1483C19.9365 27.839 20.1896 27.5859 20.4989 27.5859H27.5007C27.81 27.5859 28.0631 27.839 28.0631 28.1483V34.419C28.0631 34.7283 27.81 34.9814 27.5007 34.9814ZM21.0613 33.8566H26.9383V28.7107H21.0613V33.8566Z" fill="white"/>
<path fill-rule="evenodd" clip-rule="evenodd" d="M42.1511 34.9814H35.1493C34.84 34.9814 34.5869 34.7283 34.5869 34.419V28.1483C34.5869 27.839 34.84 27.5859 35.1493 27.5859H42.1511C42.4604 27.5859 42.7135 27.839 42.7135 28.1483V34.419C42.7135 34.7283 42.4604 34.9814 42.1511 34.9814ZM35.7117 33.8566H41.5887V28.7107H35.7117V33.8566Z" fill="white"/>
<path fill-rule="evenodd" clip-rule="evenodd" d="M12.8503 44.1454H5.84852C5.53921 44.1454 5.28613 43.8924 5.28613 43.583V37.3124C5.28613 37.0031 5.53921 36.75 5.84852 36.75H12.8503C13.1596 36.75 13.4127 37.0031 13.4127 37.3124V43.583C13.4127 43.8924 13.1596 44.1454 12.8503 44.1454ZM6.41091 43.0207H12.2879V37.8748H6.41091V43.0207Z" fill="white"/>
<path fill-rule="evenodd" clip-rule="evenodd" d="M27.5007 44.1454H20.4989C20.1896 44.1454 19.9365 43.8924 19.9365 43.583V37.3124C19.9365 37.0031 20.1896 36.75 20.4989 36.75H27.5007C27.81 36.75 28.0631 37.0031 28.0631 37.3124V43.583C28.0631 43.8924 27.81 44.1454 27.5007 44.1454ZM21.0613 43.0207H26.9383V37.8748H21.0613V43.0207Z" fill="white"/>
</g>
<defs>
<clipPath id="clip0_2123_6050">
<rect width="48" height="48" fill="white"/>
</clipPath>
</defs>
</svg>
