<svg width="134" height="45" viewBox="0 0 134 45" fill="none" xmlns="http://www.w3.org/2000/svg">
<path fill-rule="evenodd" clip-rule="evenodd" d="M1.22656 9.2677L20.2652 20.0479L39.2316 9.19542L20.2304 0L1.22656 9.2677Z" fill="white"/>
<path fill-rule="evenodd" clip-rule="evenodd" d="M20.2303 20.0776C26.5399 16.4797 32.8844 12.8497 39.1967 9.23047C26.3579 15.7944 13.6869 15.8185 1.18359 9.30275C7.57086 12.8738 13.9198 16.4654 20.2303 20.0776Z" fill="white"/>
<path fill-rule="evenodd" clip-rule="evenodd" d="M22.6442 23.9761L40.7085 13.8438L37.0678 31.6938L22.3203 44.9984L22.6442 23.9761Z" fill="white"/>
<path fill-rule="evenodd" clip-rule="evenodd" d="M23.5571 24.16C26.7694 22.2486 33.328 18.8595 40.323 14.6406C29.3875 23.2578 24.1219 35.604 23.2894 44.1356C23.2225 37.933 23.5089 30.4696 23.5571 24.16Z" fill="white"/>
<path fill-rule="evenodd" clip-rule="evenodd" d="M18.1365 24.0155L0 13.918L3.71297 31.7681L18.5327 45.0004L18.1365 24.0155Z" fill="white"/>
<path fill-rule="evenodd" clip-rule="evenodd" d="M17.1999 24.1603C13.9875 22.249 7.39143 18.8947 0.396484 14.6758C11.3239 23.2582 16.9482 35.8426 17.8129 44.3528C17.8852 38.1877 17.1651 30.3254 17.1999 24.1603Z" fill="white"/>
<path fill-rule="evenodd" clip-rule="evenodd" d="M133.848 16.0109V21.7075H133.019V16.5142C133.019 14.7126 132.009 13.5213 130.243 13.5213C128.548 13.5213 127.215 14.8196 127.215 16.6587V21.7075H126.385V9.19531H127.215V14.6028C127.52 14.034 127.98 13.5631 128.541 13.2443C129.102 12.9256 129.742 12.7719 130.387 12.8012C132.443 12.8012 133.704 14.1397 133.848 16.0136V16.0109ZM120.196 21.9243H119.66C118.508 21.8497 117.429 21.3363 116.644 20.4897C115.859 19.6431 115.429 18.5278 115.442 17.3735V17.3387C115.442 14.8866 117.425 12.7584 119.912 12.7584C121.572 12.7584 122.589 13.516 123.446 14.3458L122.833 14.9588C122.075 14.1558 121.21 13.516 119.912 13.516C117.928 13.516 116.379 15.1757 116.379 17.2637V17.3012C116.379 19.3919 117.966 21.0864 119.984 21.0864C121.21 21.0864 122.185 20.4359 122.905 19.6088L123.518 20.112C122.653 21.1587 121.679 21.844 120.201 21.9163L120.196 21.9243ZM108.872 21.9243H108.337C106.318 21.8146 105.092 20.3369 105.092 18.3533V12.9806H105.922V18.1739C105.922 19.9755 106.931 21.1668 108.698 21.1668C110.393 21.1668 111.729 19.8684 111.729 18.0293V12.9806H112.556V21.7423H111.71V20.1201C111.447 20.6545 111.042 21.1058 110.539 21.4243C110.036 21.7427 109.454 21.9158 108.859 21.9243H108.872ZM98.1644 21.9243H97.629C96.4749 21.8555 95.3919 21.3438 94.6058 20.4959C93.8198 19.6481 93.3914 18.5295 93.41 17.3735V17.3387C93.3933 16.7378 93.4968 16.1396 93.7147 15.5793C93.9325 15.019 94.2602 14.508 94.6784 14.0762C95.0967 13.6445 95.597 13.3007 96.1501 13.0652C96.7032 12.8297 97.2978 12.7071 97.8989 12.7048C98.5 12.7025 99.0956 12.8204 99.6504 13.0517C100.205 13.2829 100.708 13.6228 101.13 14.0513C101.551 14.4798 101.883 14.9883 102.105 15.5469C102.327 16.1055 102.436 16.7029 102.423 17.3039V17.3387C102.423 19.7185 100.657 21.8092 98.1697 21.919L98.1644 21.9243ZM67.6468 21.9243H67.1114C64.9136 21.8146 63.0745 20.013 63.0745 17.344V17.3092C63.0745 14.7474 64.8761 12.7289 67.2212 12.7289C69.6653 12.7289 71.2072 14.7233 71.2072 17.3092C71.2152 17.4186 71.2025 17.5285 71.1697 17.6331H63.9312C64.0757 19.8309 65.6632 21.0945 67.3577 21.0945C67.9309 21.0954 68.4977 20.9735 69.02 20.7371C69.5422 20.5007 70.0078 20.1552 70.3854 19.7239L70.9984 20.2298C70.1685 21.2016 69.1968 21.8521 67.6441 21.9243H67.6468ZM49.4434 21.7423V9.69591H50.2732L58.5719 20.1549V9.69858H59.4285V21.7075H58.7432L50.3 11.0692V21.7423H49.4434ZM67.1837 13.5588C65.4544 13.5588 64.1186 15.0365 63.9392 16.9478H70.3211C70.2488 15.181 69.2048 13.5588 67.1837 13.5588ZM81.4627 21.7423H80.3919L77.3455 17.85L74.2429 21.7423H73.2337L76.8288 17.3092L73.3782 12.9806H74.4196L77.3642 16.6962L80.3223 12.9806H81.3315L77.8996 17.2718L81.4627 21.7423ZM88.2435 10.5659V21.7423H87.3413V10.5659H83.1144V9.69858H92.3821V10.5284C92.4169 10.5659 88.2354 10.5659 88.2354 10.5659H88.2435ZM101.513 17.3788C101.513 15.2533 99.9258 13.5588 97.9074 13.5588C95.814 13.5588 94.3363 15.2533 94.3363 17.3066V17.3414C94.3363 19.4321 95.9237 21.1266 97.9422 21.1266C99.9606 21.1266 101.513 19.4321 101.513 17.3788Z" fill="white"/>
<path fill-rule="evenodd" clip-rule="evenodd" d="M54.5195 30.399V26.4692H54.8086V30.399H54.5195ZM99.739 30.4713H99.1608C98.678 30.4057 98.2369 30.1626 97.9235 29.7894C97.6102 29.4163 97.4472 28.9397 97.4663 28.4528V28.4153C97.4663 27.8892 97.6753 27.3847 98.0473 27.0127C98.4193 26.6407 98.9238 26.4317 99.4499 26.4317C99.976 26.4317 100.481 26.6407 100.853 27.0127C101.225 27.3847 101.434 27.8892 101.434 28.4153C101.46 28.9079 101.3 29.3925 100.986 29.7731C100.673 30.1538 100.228 30.4029 99.739 30.4713ZM72.7658 30.4713H72.2304C71.7476 30.4057 71.3065 30.1626 70.9931 29.7894C70.6798 29.4163 70.5168 28.9397 70.5359 28.4528V28.4153C70.5306 28.1499 70.5777 27.8861 70.6746 27.639C70.7715 27.3919 70.9163 27.1663 71.1006 26.9753C71.2849 26.7843 71.5051 26.6315 71.7486 26.5258C71.9921 26.4201 72.2541 26.3636 72.5195 26.3594C72.7866 26.3577 73.0513 26.4103 73.2975 26.514C73.5437 26.6176 73.7663 26.7702 73.9518 26.9624C74.1373 27.1547 74.2818 27.3826 74.3766 27.6323C74.4713 27.882 74.5144 28.1484 74.5032 28.4153C74.515 28.9103 74.3455 29.3926 74.0265 29.7712C73.7074 30.1499 73.261 30.3989 72.7712 30.4713H72.7658ZM61.0112 30.399L58.2352 26.9002V30.399H57.9809V26.4692H58.2352L60.9737 29.893V26.4692H61.2628V30.399H61.0112ZM67.3931 30.399L64.6171 26.9002V30.399H64.328V26.4692H64.6171L67.3583 29.893V26.4692H67.6448V30.399H67.3931ZM74.1712 28.4153C74.1842 28.1848 74.15 27.954 74.0707 27.7372C73.9914 27.5203 73.8687 27.3219 73.71 27.1541C73.5514 26.9863 73.3602 26.8527 73.1481 26.7613C72.9361 26.67 72.7076 26.6228 72.4767 26.6228C72.2458 26.6228 72.0173 26.67 71.8053 26.7613C71.5932 26.8527 71.402 26.9863 71.2434 27.1541C71.0847 27.3219 70.962 27.5203 70.8827 27.7372C70.8034 27.954 70.7692 28.1848 70.7822 28.4153C70.774 28.6453 70.8114 28.8747 70.8923 29.0901C70.9732 29.3055 71.0959 29.5028 71.2535 29.6706C71.411 29.8383 71.6002 29.9732 71.8102 30.0674C72.0201 30.1617 72.2466 30.2134 72.4767 30.2196C73.4886 30.2196 74.1712 29.4165 74.1712 28.4153ZM78.8238 30.4365H78.5722L76.8402 26.421H77.1641L78.6793 30.0644L80.2292 26.421H80.5558L78.8238 30.4365ZM86.0356 30.399L85.5296 29.3282H83.1873L82.6813 30.399H82.3574L84.1965 26.4317H84.4856L86.3247 30.399H86.0356ZM84.3759 26.7583L83.3318 29.0284H85.4226L84.3759 26.7583ZM89.9975 26.7208V30.3642H89.7084V26.7208H88.3405V26.4317H91.3708V26.7208H89.9975ZM94.2512 30.399V26.4692H94.5403V30.399H94.2512ZM101.139 28.4153C101.152 28.1848 101.118 27.954 101.039 27.7372C100.959 27.5203 100.837 27.3219 100.678 27.1541C100.519 26.9863 100.328 26.8527 100.116 26.7613C99.904 26.67 99.6755 26.6228 99.4446 26.6228C99.2137 26.6228 98.9852 26.67 98.7731 26.7613C98.5611 26.8527 98.3699 26.9863 98.2112 27.1541C98.0526 27.3219 97.9299 27.5203 97.8506 27.7372C97.7713 27.954 97.7371 28.1848 97.75 28.4153C97.7415 28.6454 97.7786 28.8749 97.8594 29.0905C97.9401 29.3061 98.0629 29.5035 98.2205 29.6714C98.3781 29.8392 98.5675 29.9741 98.7776 30.0682C98.9877 30.1623 99.2144 30.2138 99.4446 30.2196C99.6755 30.2163 99.9034 30.1665 100.115 30.0733C100.326 29.98 100.516 29.8452 100.675 29.6769C100.833 29.5085 100.955 29.3101 101.035 29.0933C101.115 28.8766 101.15 28.646 101.139 28.4153ZM107.449 30.399L104.67 26.9002V30.399H104.402V26.4692H104.654L107.347 29.893V26.4692H107.633V30.399H107.449ZM114.371 30.399V26.4692H114.661V30.1473H116.984V30.399H114.371ZM122.847 30.399L122.341 29.3282H119.998L119.492 30.399H119.169L121.008 26.4317H121.297L123.141 30.399H122.847ZM121.158 26.7717L120.111 29.0417H122.202L121.158 26.7717ZM128.838 29.3309C128.838 30.0162 128.26 30.4017 127.43 30.4017H125.663V26.4692H127.285C127.657 26.4535 128.02 26.5831 128.297 26.8306C128.38 26.909 128.446 27.0042 128.489 27.1099C128.532 27.2156 128.553 27.3294 128.549 27.4436V27.4784C128.547 27.6866 128.48 27.889 128.357 28.057C128.234 28.2251 128.061 28.3504 127.863 28.4153C128.399 28.5251 128.838 28.7767 128.838 29.3175V29.3309ZM128.302 27.4918C128.302 27.0581 127.941 26.7717 127.328 26.7717H125.989V28.3216H127.285C127.863 28.2842 128.297 27.9977 128.297 27.4918H128.302ZM128.517 29.3309C128.517 28.8624 128.086 28.5733 127.328 28.5733H125.989V30.1607H127.395C128.08 30.1232 128.511 29.8368 128.511 29.3309H128.517Z" fill="white"/>
</svg>
